# MagicaVoxel @ Ephtracy

# group
o 

# material
mtllib roady_cross_assets-14.mtl
usemtl palette

# normals
vn -1 0 0
vn 1 0 0
vn 0 0 1
vn 0 0 -1
vn 0 -1 0
vn 0 1 0

# texcoords
vt 0.0214844 0.5
vt 0.0253906 0.5
vt 0.0292969 0.5

# verts
v -2.4 -0.8 0.3
v -2.4 -0.8 0.2
v -2.4 -0.8 -0.2
v -2.4 -0.8 -0.3
v -2.4 -0.7 0.2
v -2.4 -0.7 -0.2
v -2.4 -0.6 0.3
v -2.4 -0.6 -0.3
v 2.4 -0.8 0.3
v 2.4 -0.8 0.2
v 2.4 -0.8 -0.2
v 2.4 -0.8 -0.3
v 2.4 -0.7 0.2
v 2.4 -0.7 -0.2
v 2.4 -0.6 0.3
v 2.4 -0.6 -0.3
v -2.4 -0.8 0.3
v -2.4 -0.6 0.3
v -2.3 -0.8 0.3
v -2.3 -0.7 0.3
v -2.3 -0.6 0.3
v -2.2 -0.8 0.3
v -2.2 -0.7 0.3
v -2.2 -0.6 0.3
v -1.8 -0.8 0.3
v -1.8 -0.7 0.3
v -1.7 -0.8 0.3
v -1.7 -0.7 0.3
v -1.4 -0.8 0.3
v -1.4 -0.7 0.3
v -1.3 -0.7 0.3
v -1.3 -0.6 0.3
v -1.1 -0.8 0.3
v -1.1 -0.7 0.3
v -1.1 -0.6 0.3
v -0.8 -0.8 0.3
v -0.8 -0.7 0.3
v -0.7 -0.7 0.3
v -0.7 -0.6 0.3
v -0.2 -0.7 0.3
v -0.2 -0.6 0.3
v 0.1 -0.7 0.3
v 0.1 -0.6 0.3
v 0.3 -0.7 0.3
v 0.3 -0.6 0.3
v 0.4 -0.8 0.3
v 0.4 -0.7 0.3
v 0.8 -0.8 0.3
v 0.8 -0.7 0.3
v 0.9 -0.7 0.3
v 0.9 -0.6 0.3
v 1.1 -0.7 0.3
v 1.1 -0.6 0.3
v 1.2 -0.8 0.3
v 1.2 -0.7 0.3
v 1.4 -0.8 0.3
v 1.4 -0.7 0.3
v 1.7 -0.7 0.3
v 1.7 -0.6 0.3
v 2 -0.7 0.3
v 2 -0.6 0.3
v 2.1 -0.8 0.3
v 2.1 -0.7 0.3
v 2.2 -0.8 0.3
v 2.2 -0.7 0.3
v 2.3 -0.8 0.3
v 2.3 -0.6 0.3
v 2.4 -0.8 0.3
v 2.4 -0.6 0.3
v -2.4 -0.8 -0.2
v -2.4 -0.7 -0.2
v -2.3 -0.8 -0.2
v -2.3 -0.7 -0.2
v -1.5 -0.7 -0.2
v -1.3 -0.8 -0.2
v -1.3 -0.7 -0.2
v -1 -0.7 -0.2
v -0.8 -0.8 -0.2
v -0.8 -0.7 -0.2
v -0.7 -0.7 -0.2
v -0.5 -0.7 -0.2
v -0.2 -0.8 -0.2
v -0.2 -0.7 -0.2
v 0.2 -0.8 -0.2
v 0.2 -0.7 -0.2
v 0.4 -0.7 -0.2
v 0.5 -0.7 -0.2
v 0.6 -0.8 -0.2
v 0.6 -0.7 -0.2
v 0.9 -0.8 -0.2
v 0.9 -0.7 -0.2
v 1 -0.7 -0.2
v 1.1 -0.7 -0.2
v 1.2 -0.8 -0.2
v 1.2 -0.7 -0.2
v 1.4 -0.8 -0.2
v 1.4 -0.7 -0.2
v 1.5 -0.7 -0.2
v 1.8 -0.8 -0.2
v 1.8 -0.7 -0.2
v 1.9 -0.7 -0.2
v 2.2 -0.8 -0.2
v 2.2 -0.7 -0.2
v 2.3 -0.8 -0.2
v 2.3 -0.7 -0.2
v 2.4 -0.8 -0.2
v 2.4 -0.7 -0.2
v -2.4 -0.8 0.2
v -2.4 -0.7 0.2
v -2.3 -0.8 0.2
v -2.3 -0.7 0.2
v -2.2 -0.8 0.2
v -2.2 -0.7 0.2
v -2.1 -0.7 0.2
v -1.8 -0.8 0.2
v -1.8 -0.7 0.2
v -1.7 -0.8 0.2
v -1.7 -0.7 0.2
v -1.6 -0.7 0.2
v -1.4 -0.8 0.2
v -1.4 -0.7 0.2
v -1.3 -0.7 0.2
v -1.1 -0.8 0.2
v -1.1 -0.7 0.2
v -0.9 -0.7 0.2
v -0.8 -0.8 0.2
v -0.8 -0.7 0.2
v -0.7 -0.7 0.2
v 0 -0.7 0.2
v 0.2 -0.7 0.2
v 0.4 -0.8 0.2
v 0.4 -0.7 0.2
v 0.6 -0.7 0.2
v 0.8 -0.8 0.2
v 0.8 -0.7 0.2
v 1.2 -0.8 0.2
v 1.2 -0.7 0.2
v 1.3 -0.7 0.2
v 1.4 -0.8 0.2
v 1.4 -0.7 0.2
v 1.5 -0.7 0.2
v 2.1 -0.8 0.2
v 2.1 -0.7 0.2
v 2.2 -0.8 0.2
v 2.2 -0.7 0.2
v 2.3 -0.8 0.2
v 2.3 -0.7 0.2
v 2.4 -0.8 0.2
v 2.4 -0.7 0.2
v -2.4 -0.8 -0.3
v -2.4 -0.6 -0.3
v -2.3 -0.8 -0.3
v -2.3 -0.6 -0.3
v -2.2 -0.7 -0.3
v -2.2 -0.6 -0.3
v -1.8 -0.7 -0.3
v -1.8 -0.6 -0.3
v -1.7 -0.7 -0.3
v -1.7 -0.6 -0.3
v -1.4 -0.7 -0.3
v -1.4 -0.6 -0.3
v -1.3 -0.8 -0.3
v -1.3 -0.7 -0.3
v -0.8 -0.8 -0.3
v -0.8 -0.7 -0.3
v -0.7 -0.7 -0.3
v -0.7 -0.6 -0.3
v -0.3 -0.7 -0.3
v -0.3 -0.6 -0.3
v -0.2 -0.8 -0.3
v -0.2 -0.7 -0.3
v 0.2 -0.8 -0.3
v 0.2 -0.7 -0.3
v 0.6 -0.8 -0.3
v 0.6 -0.6 -0.3
v 0.8 -0.7 -0.3
v 0.8 -0.6 -0.3
v 0.9 -0.8 -0.3
v 0.9 -0.7 -0.3
v 1.1 -0.7 -0.3
v 1.1 -0.6 -0.3
v 1.2 -0.8 -0.3
v 1.2 -0.7 -0.3
v 1.4 -0.8 -0.3
v 1.4 -0.7 -0.3
v 1.7 -0.7 -0.3
v 1.7 -0.6 -0.3
v 1.8 -0.8 -0.3
v 1.8 -0.7 -0.3
v 2.2 -0.8 -0.3
v 2.2 -0.7 -0.3
v 2.3 -0.8 -0.3
v 2.3 -0.6 -0.3
v 2.4 -0.8 -0.3
v 2.4 -0.6 -0.3
v -2.4 -0.8 0.3
v -2.3 -0.8 0.3
v -2.2 -0.8 0.3
v -1.8 -0.8 0.3
v -1.7 -0.8 0.3
v -1.4 -0.8 0.3
v -1.1 -0.8 0.3
v -0.8 -0.8 0.3
v 0.4 -0.8 0.3
v 0.8 -0.8 0.3
v 1.2 -0.8 0.3
v 1.4 -0.8 0.3
v 2.1 -0.8 0.3
v 2.2 -0.8 0.3
v 2.3 -0.8 0.3
v 2.4 -0.8 0.3
v -2.4 -0.8 0.2
v -2.3 -0.8 0.2
v -2.2 -0.8 0.2
v -1.8 -0.8 0.2
v -1.7 -0.8 0.2
v -1.4 -0.8 0.2
v -1.1 -0.8 0.2
v -0.8 -0.8 0.2
v 0.4 -0.8 0.2
v 0.8 -0.8 0.2
v 1.2 -0.8 0.2
v 1.4 -0.8 0.2
v 2.1 -0.8 0.2
v 2.2 -0.8 0.2
v 2.3 -0.8 0.2
v 2.4 -0.8 0.2
v -2.4 -0.8 -0.2
v -2.3 -0.8 -0.2
v -1.3 -0.8 -0.2
v -0.8 -0.8 -0.2
v -0.2 -0.8 -0.2
v 0.2 -0.8 -0.2
v 0.6 -0.8 -0.2
v 0.9 -0.8 -0.2
v 1.2 -0.8 -0.2
v 1.4 -0.8 -0.2
v 1.8 -0.8 -0.2
v 2.2 -0.8 -0.2
v 2.3 -0.8 -0.2
v 2.4 -0.8 -0.2
v -2.4 -0.8 -0.3
v -2.3 -0.8 -0.3
v -1.3 -0.8 -0.3
v -0.8 -0.8 -0.3
v -0.2 -0.8 -0.3
v 0.2 -0.8 -0.3
v 0.6 -0.8 -0.3
v 0.9 -0.8 -0.3
v 1.2 -0.8 -0.3
v 1.4 -0.8 -0.3
v 1.8 -0.8 -0.3
v 2.2 -0.8 -0.3
v 2.3 -0.8 -0.3
v 2.4 -0.8 -0.3
v -2.4 -0.7 0.2
v -2.3 -0.7 0.2
v -2.2 -0.7 0.2
v -2.1 -0.7 0.2
v -1.8 -0.7 0.2
v -1.7 -0.7 0.2
v -1.6 -0.7 0.2
v -1.4 -0.7 0.2
v -1.3 -0.7 0.2
v -1.1 -0.7 0.2
v -0.9 -0.7 0.2
v -0.8 -0.7 0.2
v -0.7 -0.7 0.2
v 0 -0.7 0.2
v 0.2 -0.7 0.2
v 0.4 -0.7 0.2
v 0.6 -0.7 0.2
v 0.8 -0.7 0.2
v 1.2 -0.7 0.2
v 1.3 -0.7 0.2
v 1.4 -0.7 0.2
v 1.5 -0.7 0.2
v 2.1 -0.7 0.2
v 2.2 -0.7 0.2
v 2.3 -0.7 0.2
v 2.4 -0.7 0.2
v -2.3 -0.7 0.1
v -2.1 -0.7 0.1
v -1.9 -0.7 0.1
v -1.6 -0.7 0.1
v -1.3 -0.7 0.1
v -0.9 -0.7 0.1
v -0.7 -0.7 0.1
v 0 -0.7 0.1
v 0.2 -0.7 0.1
v 0.6 -0.7 0.1
v 0.7 -0.7 0.1
v 0.9 -0.7 0.1
v 1.3 -0.7 0.1
v 1.5 -0.7 0.1
v -2.3 -0.7 0
v -1.9 -0.7 0
v -1.5 -0.7 0
v -1.3 -0.7 0
v -1 -0.7 0
v -0.8 -0.7 0
v -0.2 -0.7 0
v 0.4 -0.7 0
v 0.7 -0.7 0
v 0.9 -0.7 0
v 1 -0.7 0
v 1.3 -0.7 0
v 2.1 -0.7 0
v 2.3 -0.7 0
v -1.3 -0.7 -0.1
v -1 -0.7 -0.1
v -0.8 -0.7 -0.1
v -0.7 -0.7 -0.1
v -0.5 -0.7 -0.1
v -0.2 -0.7 -0.1
v 0.2 -0.7 -0.1
v 0.5 -0.7 -0.1
v 1 -0.7 -0.1
v 1.1 -0.7 -0.1
v 1.3 -0.7 -0.1
v 1.5 -0.7 -0.1
v 1.9 -0.7 -0.1
v 2.3 -0.7 -0.1
v -2.4 -0.7 -0.2
v -2.3 -0.7 -0.2
v -1.5 -0.7 -0.2
v -1.3 -0.7 -0.2
v -1 -0.7 -0.2
v -0.8 -0.7 -0.2
v -0.7 -0.7 -0.2
v -0.5 -0.7 -0.2
v -0.2 -0.7 -0.2
v 0.2 -0.7 -0.2
v 0.4 -0.7 -0.2
v 0.5 -0.7 -0.2
v 0.6 -0.7 -0.2
v 0.9 -0.7 -0.2
v 1 -0.7 -0.2
v 1.1 -0.7 -0.2
v 1.2 -0.7 -0.2
v 1.4 -0.7 -0.2
v 1.5 -0.7 -0.2
v 1.8 -0.7 -0.2
v 1.9 -0.7 -0.2
v 2.2 -0.7 -0.2
v 2.3 -0.7 -0.2
v 2.4 -0.7 -0.2
v -2.4 -0.6 0.3
v -2.3 -0.6 0.3
v -2.2 -0.6 0.3
v -1.3 -0.6 0.3
v -1.1 -0.6 0.3
v -0.7 -0.6 0.3
v -0.2 -0.6 0.3
v 0.1 -0.6 0.3
v 0.3 -0.6 0.3
v 0.9 -0.6 0.3
v 1.1 -0.6 0.3
v 1.7 -0.6 0.3
v 2 -0.6 0.3
v 2.3 -0.6 0.3
v 2.4 -0.6 0.3
v -2.3 -0.6 0.2
v -2.2 -0.6 0.2
v -2.1 -0.6 0.2
v -1.6 -0.6 0.2
v -1.1 -0.6 0.2
v -0.9 -0.6 0.2
v -0.2 -0.6 0.2
v 0 -0.6 0.2
v 0.1 -0.6 0.2
v 0.2 -0.6 0.2
v 0.3 -0.6 0.2
v 0.6 -0.6 0.2
v 0.9 -0.6 0.2
v 1.1 -0.6 0.2
v 1.3 -0.6 0.2
v 1.5 -0.6 0.2
v 1.7 -0.6 0.2
v 2 -0.6 0.2
v 2.1 -0.6 0.2
v 2.3 -0.6 0.2
v -2.3 -0.6 0.1
v -2.1 -0.6 0.1
v -1.9 -0.6 0.1
v -1.6 -0.6 0.1
v -1.3 -0.6 0.1
v -0.9 -0.6 0.1
v -0.7 -0.6 0.1
v 0 -0.6 0.1
v 0.2 -0.6 0.1
v 0.6 -0.6 0.1
v 0.7 -0.6 0.1
v 0.9 -0.6 0.1
v 1.3 -0.6 0.1
v 1.5 -0.6 0.1
v -2.3 -0.6 0
v -1.9 -0.6 0
v -1.5 -0.6 0
v -1.3 -0.6 0
v -1 -0.6 0
v -0.8 -0.6 0
v -0.2 -0.6 0
v 0.4 -0.6 0
v 0.7 -0.6 0
v 0.9 -0.6 0
v 1 -0.6 0
v 1.3 -0.6 0
v 2.1 -0.6 0
v 2.3 -0.6 0
v -1.3 -0.6 -0.1
v -1 -0.6 -0.1
v -0.8 -0.6 -0.1
v -0.7 -0.6 -0.1
v -0.5 -0.6 -0.1
v -0.2 -0.6 -0.1
v 0.2 -0.6 -0.1
v 0.5 -0.6 -0.1
v 1 -0.6 -0.1
v 1.1 -0.6 -0.1
v 1.3 -0.6 -0.1
v 1.5 -0.6 -0.1
v 1.9 -0.6 -0.1
v 2.3 -0.6 -0.1
v -2.2 -0.6 -0.2
v -1.8 -0.6 -0.2
v -1.7 -0.6 -0.2
v -1.5 -0.6 -0.2
v -1.4 -0.6 -0.2
v -1 -0.6 -0.2
v -0.5 -0.6 -0.2
v -0.3 -0.6 -0.2
v 0.2 -0.6 -0.2
v 0.4 -0.6 -0.2
v 0.5 -0.6 -0.2
v 0.6 -0.6 -0.2
v 0.8 -0.6 -0.2
v 1 -0.6 -0.2
v 1.5 -0.6 -0.2
v 1.7 -0.6 -0.2
v 1.9 -0.6 -0.2
v 2.3 -0.6 -0.2
v -2.4 -0.6 -0.3
v -2.3 -0.6 -0.3
v -2.2 -0.6 -0.3
v -1.8 -0.6 -0.3
v -1.7 -0.6 -0.3
v -1.4 -0.6 -0.3
v -0.7 -0.6 -0.3
v -0.3 -0.6 -0.3
v 0.6 -0.6 -0.3
v 0.8 -0.6 -0.3
v 1.1 -0.6 -0.3
v 1.7 -0.6 -0.3
v 2.3 -0.6 -0.3
v 2.4 -0.6 -0.3

# faces
f 5/2/1 2/2/1 1/2/1
f 6/2/1 4/2/1 3/2/1
f 7/2/1 5/2/1 1/2/1
f 7/2/1 6/2/1 5/2/1
f 8/2/1 4/2/1 6/2/1
f 8/2/1 6/2/1 7/2/1
f 9/2/2 10/2/2 13/2/2
f 11/2/2 12/2/2 14/2/2
f 9/2/2 13/2/2 15/2/2
f 13/2/2 14/2/2 15/2/2
f 14/2/2 12/2/2 16/2/2
f 15/2/2 14/2/2 16/2/2
f 19/2/3 18/2/3 17/2/3
f 20/2/3 18/2/3 19/2/3
f 21/2/3 18/2/3 20/2/3
f 22/3/3 20/3/3 19/3/3
f 23/1/3 21/1/3 20/1/3
f 23/3/3 20/3/3 22/3/3
f 24/1/3 21/1/3 23/1/3
f 25/1/3 23/1/3 22/1/3
f 26/3/3 24/3/3 23/3/3
f 26/1/3 23/1/3 25/1/3
f 27/3/3 26/3/3 25/3/3
f 28/3/3 24/3/3 26/3/3
f 28/3/3 26/3/3 27/3/3
f 29/1/3 28/1/3 27/1/3
f 30/3/3 24/3/3 28/3/3
f 30/1/3 28/1/3 29/1/3
f 31/3/3 30/3/3 29/3/3
f 31/3/3 24/3/3 30/3/3
f 32/3/3 24/3/3 31/3/3
f 33/3/3 31/3/3 29/3/3
f 34/1/3 32/1/3 31/1/3
f 34/3/3 31/3/3 33/3/3
f 35/1/3 32/1/3 34/1/3
f 36/1/3 34/1/3 33/1/3
f 37/3/3 35/3/3 34/3/3
f 37/1/3 34/1/3 36/1/3
f 38/3/3 37/3/3 36/3/3
f 38/3/3 35/3/3 37/3/3
f 39/3/3 35/3/3 38/3/3
f 40/3/3 38/3/3 36/3/3
f 40/1/3 39/1/3 38/1/3
f 41/1/3 39/1/3 40/1/3
f 42/3/3 40/3/3 36/3/3
f 42/3/3 41/3/3 40/3/3
f 43/3/3 41/3/3 42/3/3
f 44/3/3 42/3/3 36/3/3
f 44/1/3 43/1/3 42/1/3
f 45/1/3 43/1/3 44/1/3
f 46/3/3 44/3/3 36/3/3
f 46/3/3 45/3/3 44/3/3
f 47/3/3 45/3/3 46/3/3
f 48/1/3 47/1/3 46/1/3
f 49/3/3 45/3/3 47/3/3
f 49/1/3 47/1/3 48/1/3
f 50/3/3 49/3/3 48/3/3
f 50/3/3 45/3/3 49/3/3
f 51/3/3 45/3/3 50/3/3
f 52/3/3 50/3/3 48/3/3
f 52/1/3 51/1/3 50/1/3
f 53/1/3 51/1/3 52/1/3
f 54/3/3 52/3/3 48/3/3
f 54/3/3 53/3/3 52/3/3
f 55/3/3 53/3/3 54/3/3
f 56/1/3 55/1/3 54/1/3
f 57/3/3 53/3/3 55/3/3
f 57/1/3 55/1/3 56/1/3
f 58/3/3 57/3/3 56/3/3
f 58/3/3 53/3/3 57/3/3
f 59/3/3 53/3/3 58/3/3
f 60/3/3 58/3/3 56/3/3
f 60/1/3 59/1/3 58/1/3
f 61/1/3 59/1/3 60/1/3
f 62/3/3 60/3/3 56/3/3
f 62/3/3 61/3/3 60/3/3
f 63/3/3 61/3/3 62/3/3
f 64/1/3 63/1/3 62/1/3
f 65/3/3 61/3/3 63/3/3
f 65/1/3 63/1/3 64/1/3
f 66/3/3 65/3/3 64/3/3
f 67/3/3 61/3/3 65/3/3
f 67/3/3 65/3/3 66/3/3
f 68/2/3 67/2/3 66/2/3
f 69/2/3 67/2/3 68/2/3
f 72/2/3 71/2/3 70/2/3
f 73/2/3 71/2/3 72/2/3
f 74/3/3 73/3/3 72/3/3
f 75/3/3 74/3/3 72/3/3
f 76/3/3 74/3/3 75/3/3
f 77/1/3 76/1/3 75/1/3
f 78/1/3 77/1/3 75/1/3
f 79/1/3 77/1/3 78/1/3
f 80/3/3 79/3/3 78/3/3
f 81/3/3 80/3/3 78/3/3
f 82/3/3 81/3/3 78/3/3
f 83/3/3 81/3/3 82/3/3
f 84/1/3 83/1/3 82/1/3
f 85/1/3 83/1/3 84/1/3
f 86/3/3 85/3/3 84/3/3
f 87/3/3 86/3/3 84/3/3
f 88/3/3 87/3/3 84/3/3
f 89/3/3 87/3/3 88/3/3
f 90/1/3 89/1/3 88/1/3
f 91/1/3 89/1/3 90/1/3
f 92/3/3 91/3/3 90/3/3
f 93/3/3 92/3/3 90/3/3
f 94/3/3 93/3/3 90/3/3
f 95/3/3 93/3/3 94/3/3
f 96/1/3 95/1/3 94/1/3
f 97/1/3 95/1/3 96/1/3
f 98/3/3 97/3/3 96/3/3
f 99/3/3 98/3/3 96/3/3
f 100/3/3 98/3/3 99/3/3
f 101/1/3 100/1/3 99/1/3
f 102/1/3 101/1/3 99/1/3
f 103/1/3 101/1/3 102/1/3
f 104/3/3 103/3/3 102/3/3
f 105/3/3 103/3/3 104/3/3
f 106/2/3 105/2/3 104/2/3
f 107/2/3 105/2/3 106/2/3
f 108/2/4 109/2/4 110/2/4
f 110/2/4 109/2/4 111/2/4
f 110/3/4 111/3/4 112/3/4
f 112/3/4 111/3/4 113/3/4
f 112/1/4 113/1/4 114/1/4
f 112/1/4 114/1/4 115/1/4
f 115/1/4 114/1/4 116/1/4
f 115/3/4 116/3/4 117/3/4
f 117/3/4 116/3/4 118/3/4
f 117/1/4 118/1/4 119/1/4
f 117/1/4 119/1/4 120/1/4
f 120/1/4 119/1/4 121/1/4
f 120/3/4 121/3/4 122/3/4
f 120/3/4 122/3/4 123/3/4
f 123/3/4 122/3/4 124/3/4
f 123/1/4 124/1/4 125/1/4
f 123/1/4 125/1/4 126/1/4
f 126/1/4 125/1/4 127/1/4
f 126/3/4 127/3/4 128/3/4
f 126/3/4 128/3/4 129/3/4
f 126/3/4 129/3/4 130/3/4
f 126/3/4 130/3/4 131/3/4
f 131/3/4 130/3/4 132/3/4
f 131/1/4 132/1/4 133/1/4
f 131/1/4 133/1/4 134/1/4
f 134/1/4 133/1/4 135/1/4
f 134/3/4 135/3/4 136/3/4
f 136/3/4 135/3/4 137/3/4
f 136/1/4 137/1/4 138/1/4
f 136/1/4 138/1/4 139/1/4
f 139/1/4 138/1/4 140/1/4
f 139/3/4 140/3/4 141/3/4
f 139/3/4 141/3/4 142/3/4
f 142/3/4 141/3/4 143/3/4
f 142/1/4 143/1/4 144/1/4
f 144/1/4 143/1/4 145/1/4
f 144/3/4 145/3/4 146/3/4
f 146/3/4 145/3/4 147/3/4
f 146/2/4 147/2/4 148/2/4
f 148/2/4 147/2/4 149/2/4
f 150/2/4 151/2/4 152/2/4
f 152/2/4 151/2/4 153/2/4
f 152/3/4 153/3/4 154/3/4
f 154/3/4 153/3/4 155/3/4
f 152/3/4 154/3/4 156/3/4
f 154/1/4 155/1/4 156/1/4
f 156/1/4 155/1/4 157/1/4
f 152/3/4 156/3/4 158/3/4
f 156/3/4 157/3/4 158/3/4
f 158/3/4 157/3/4 159/3/4
f 152/3/4 158/3/4 160/3/4
f 158/1/4 159/1/4 160/1/4
f 160/1/4 159/1/4 161/1/4
f 152/3/4 160/3/4 162/3/4
f 160/3/4 161/3/4 162/3/4
f 162/3/4 161/3/4 163/3/4
f 162/1/4 163/1/4 164/1/4
f 163/3/4 161/3/4 165/3/4
f 164/1/4 163/1/4 165/1/4
f 164/3/4 165/3/4 166/3/4
f 165/3/4 161/3/4 166/3/4
f 166/3/4 161/3/4 167/3/4
f 164/3/4 166/3/4 168/3/4
f 166/1/4 167/1/4 168/1/4
f 168/1/4 167/1/4 169/1/4
f 164/3/4 168/3/4 170/3/4
f 168/3/4 169/3/4 170/3/4
f 170/3/4 169/3/4 171/3/4
f 170/1/4 171/1/4 172/1/4
f 171/3/4 169/3/4 173/3/4
f 172/1/4 171/1/4 173/1/4
f 172/3/4 173/3/4 174/3/4
f 173/3/4 169/3/4 175/3/4
f 174/3/4 173/3/4 175/3/4
f 174/1/4 175/1/4 176/1/4
f 176/1/4 175/1/4 177/1/4
f 174/1/4 176/1/4 178/1/4
f 176/3/4 177/3/4 179/3/4
f 178/1/4 176/1/4 179/1/4
f 178/3/4 179/3/4 180/3/4
f 179/3/4 177/3/4 180/3/4
f 180/3/4 177/3/4 181/3/4
f 178/3/4 180/3/4 182/3/4
f 180/1/4 181/1/4 183/1/4
f 182/3/4 180/3/4 183/3/4
f 182/1/4 183/1/4 184/1/4
f 183/1/4 181/1/4 185/1/4
f 184/1/4 183/1/4 185/1/4
f 184/3/4 185/3/4 186/3/4
f 185/1/4 181/1/4 186/1/4
f 186/1/4 181/1/4 187/1/4
f 184/3/4 186/3/4 188/3/4
f 186/3/4 187/3/4 188/3/4
f 188/3/4 187/3/4 189/3/4
f 188/1/4 189/1/4 190/1/4
f 189/3/4 187/3/4 191/3/4
f 190/1/4 189/1/4 191/1/4
f 190/3/4 191/3/4 192/3/4
f 191/3/4 187/3/4 193/3/4
f 192/3/4 191/3/4 193/3/4
f 192/2/4 193/2/4 194/2/4
f 194/2/4 193/2/4 195/2/4
f 212/2/5 197/2/5 196/2/5
f 213/3/5 198/3/5 197/3/5
f 213/2/5 197/2/5 212/2/5
f 214/1/5 199/1/5 198/1/5
f 214/3/5 198/3/5 213/3/5
f 215/3/5 200/3/5 199/3/5
f 215/1/5 199/1/5 214/1/5
f 216/1/5 201/1/5 200/1/5
f 216/3/5 200/3/5 215/3/5
f 217/3/5 202/3/5 201/3/5
f 217/1/5 201/1/5 216/1/5
f 218/1/5 203/1/5 202/1/5
f 218/3/5 202/3/5 217/3/5
f 219/3/5 204/3/5 203/3/5
f 219/1/5 203/1/5 218/1/5
f 220/1/5 205/1/5 204/1/5
f 220/3/5 204/3/5 219/3/5
f 221/3/5 206/3/5 205/3/5
f 221/1/5 205/1/5 220/1/5
f 222/1/5 207/1/5 206/1/5
f 222/3/5 206/3/5 221/3/5
f 223/3/5 208/3/5 207/3/5
f 223/1/5 207/1/5 222/1/5
f 224/1/5 209/1/5 208/1/5
f 224/3/5 208/3/5 223/3/5
f 225/3/5 210/3/5 209/3/5
f 225/1/5 209/1/5 224/1/5
f 226/2/5 211/2/5 210/2/5
f 226/3/5 210/3/5 225/3/5
f 227/2/5 211/2/5 226/2/5
f 242/2/5 229/2/5 228/2/5
f 243/3/5 230/3/5 229/3/5
f 243/2/5 229/2/5 242/2/5
f 244/1/5 231/1/5 230/1/5
f 244/3/5 230/3/5 243/3/5
f 245/3/5 232/3/5 231/3/5
f 245/1/5 231/1/5 244/1/5
f 246/1/5 233/1/5 232/1/5
f 246/3/5 232/3/5 245/3/5
f 247/3/5 234/3/5 233/3/5
f 247/1/5 233/1/5 246/1/5
f 248/1/5 235/1/5 234/1/5
f 248/3/5 234/3/5 247/3/5
f 249/3/5 236/3/5 235/3/5
f 249/1/5 235/1/5 248/1/5
f 250/1/5 237/1/5 236/1/5
f 250/3/5 236/3/5 249/3/5
f 251/3/5 238/3/5 237/3/5
f 251/1/5 237/1/5 250/1/5
f 252/1/5 239/1/5 238/1/5
f 252/3/5 238/3/5 251/3/5
f 253/3/5 240/3/5 239/3/5
f 253/1/5 239/1/5 252/1/5
f 254/2/5 241/2/5 240/2/5
f 254/3/5 240/3/5 253/3/5
f 255/2/5 241/2/5 254/2/5
f 282/2/5 257/2/5 256/2/5
f 282/3/5 258/3/5 257/3/5
f 282/3/5 259/3/5 258/3/5
f 283/1/5 260/1/5 259/1/5
f 283/3/5 259/3/5 282/3/5
f 283/1/5 261/1/5 260/1/5
f 283/1/5 262/1/5 261/1/5
f 284/1/5 262/1/5 283/1/5
f 285/3/5 263/3/5 262/3/5
f 285/1/5 262/1/5 284/1/5
f 285/3/5 264/3/5 263/3/5
f 286/1/5 265/1/5 264/1/5
f 286/3/5 264/3/5 285/3/5
f 286/1/5 266/1/5 265/1/5
f 287/3/5 267/3/5 266/3/5
f 287/1/5 266/1/5 286/1/5
f 287/3/5 268/3/5 267/3/5
f 288/1/5 269/1/5 268/1/5
f 288/3/5 268/3/5 287/3/5
f 289/3/5 270/3/5 269/3/5
f 289/1/5 269/1/5 288/1/5
f 290/1/5 271/1/5 270/1/5
f 290/3/5 270/3/5 289/3/5
f 290/1/5 272/1/5 271/1/5
f 291/3/5 275/3/5 274/3/5
f 291/1/5 272/1/5 290/1/5
f 291/3/5 274/3/5 273/3/5
f 291/3/5 273/3/5 272/3/5
f 292/3/5 275/3/5 291/3/5
f 293/3/5 275/3/5 292/3/5
f 294/1/5 277/1/5 276/1/5
f 294/3/5 275/3/5 293/3/5
f 294/1/5 276/1/5 275/1/5
f 295/3/5 278/3/5 277/3/5
f 295/1/5 277/1/5 294/1/5
f 296/2/5 282/2/5 256/2/5
f 296/1/5 284/1/5 283/1/5
f 296/1/5 283/1/5 282/1/5
f 297/3/5 291/3/5 290/3/5
f 297/1/5 284/1/5 296/1/5
f 297/3/5 285/3/5 284/3/5
f 297/3/5 289/3/5 288/3/5
f 297/3/5 288/3/5 287/3/5
f 297/3/5 287/3/5 286/3/5
f 297/3/5 290/3/5 289/3/5
f 297/3/5 286/3/5 285/3/5
f 297/3/5 292/3/5 291/3/5
f 298/3/5 292/3/5 297/3/5
f 299/3/5 292/3/5 298/3/5
f 300/3/5 292/3/5 299/3/5
f 301/3/5 292/3/5 300/3/5
f 302/3/5 292/3/5 301/3/5
f 303/3/5 292/3/5 302/3/5
f 304/1/5 293/1/5 292/1/5
f 304/3/5 292/3/5 303/3/5
f 305/3/5 294/3/5 293/3/5
f 305/1/5 293/1/5 304/1/5
f 305/3/5 295/3/5 294/3/5
f 306/3/5 295/3/5 305/3/5
f 307/3/5 295/3/5 306/3/5
f 308/1/5 280/1/5 279/1/5
f 308/3/5 295/3/5 307/3/5
f 308/1/5 279/1/5 278/1/5
f 308/3/5 278/3/5 295/3/5
f 309/2/5 281/2/5 280/2/5
f 309/1/5 280/1/5 308/1/5
f 310/1/5 299/1/5 298/1/5
f 310/3/5 300/3/5 299/3/5
f 311/1/5 301/1/5 300/1/5
f 311/3/5 300/3/5 310/3/5
f 312/3/5 302/3/5 301/3/5
f 312/1/5 301/1/5 311/1/5
f 313/3/5 302/3/5 312/3/5
f 314/3/5 302/3/5 313/3/5
f 315/1/5 303/1/5 302/1/5
f 315/3/5 302/3/5 314/3/5
f 316/1/5 303/1/5 315/1/5
f 317/3/5 306/3/5 305/3/5
f 317/3/5 305/3/5 304/3/5
f 317/3/5 304/3/5 303/3/5
f 318/1/5 307/1/5 306/1/5
f 318/3/5 306/3/5 317/3/5
f 319/1/5 307/1/5 318/1/5
f 320/3/5 308/3/5 307/3/5
f 320/1/5 307/1/5 319/1/5
f 320/3/5 309/3/5 308/3/5
f 321/3/5 309/3/5 320/3/5
f 322/3/5 309/3/5 321/3/5
f 323/2/5 281/2/5 309/2/5
f 323/3/5 309/3/5 322/3/5
f 324/2/5 296/2/5 256/2/5
f 325/3/5 297/3/5 296/3/5
f 325/2/5 296/2/5 324/2/5
f 325/3/5 298/3/5 297/3/5
f 326/1/5 311/1/5 310/1/5
f 326/3/5 298/3/5 325/3/5
f 326/1/5 310/1/5 298/1/5
f 327/1/5 311/1/5 326/1/5
f 328/3/5 312/3/5 311/3/5
f 328/1/5 311/1/5 327/1/5
f 328/3/5 313/3/5 312/3/5
f 329/3/5 313/3/5 328/3/5
f 330/1/5 314/1/5 313/1/5
f 330/3/5 313/3/5 329/3/5
f 331/3/5 316/3/5 315/3/5
f 331/1/5 314/1/5 330/1/5
f 331/3/5 315/3/5 314/3/5
f 332/3/5 316/3/5 331/3/5
f 333/1/5 303/1/5 316/1/5
f 333/3/5 316/3/5 332/3/5
f 334/3/5 317/3/5 303/3/5
f 334/1/5 303/1/5 333/1/5
f 335/1/5 318/1/5 317/1/5
f 335/3/5 317/3/5 334/3/5
f 336/1/5 318/1/5 335/1/5
f 337/1/5 318/1/5 336/1/5
f 338/3/5 319/3/5 318/3/5
f 338/1/5 318/1/5 337/1/5
f 339/1/5 321/1/5 320/1/5
f 339/3/5 319/3/5 338/3/5
f 339/1/5 320/1/5 319/1/5
f 340/1/5 321/1/5 339/1/5
f 341/1/5 321/1/5 340/1/5
f 342/3/5 322/3/5 321/3/5
f 342/1/5 321/1/5 341/1/5
f 343/3/5 322/3/5 342/3/5
f 344/1/5 323/1/5 322/1/5
f 344/3/5 322/3/5 343/3/5
f 345/1/5 323/1/5 344/1/5
f 346/2/5 281/2/5 323/2/5
f 346/1/5 323/1/5 345/1/5
f 347/2/5 281/2/5 346/2/5
f 348/2/6 349/2/6 363/2/6
f 349/1/6 350/1/6 363/1/6
f 350/3/6 351/3/6 364/3/6
f 363/1/6 350/1/6 364/1/6
f 364/3/6 351/3/6 365/3/6
f 365/3/6 351/3/6 366/3/6
f 351/1/6 352/1/6 367/1/6
f 352/3/6 353/3/6 367/3/6
f 367/3/6 353/3/6 368/3/6
f 353/1/6 354/1/6 369/1/6
f 354/3/6 355/3/6 369/3/6
f 369/3/6 355/3/6 370/3/6
f 355/1/6 356/1/6 371/1/6
f 370/3/6 355/3/6 371/3/6
f 371/1/6 356/1/6 372/1/6
f 356/3/6 357/3/6 373/3/6
f 372/1/6 356/1/6 373/1/6
f 373/3/6 357/3/6 374/3/6
f 357/1/6 358/1/6 375/1/6
f 374/3/6 357/3/6 375/3/6
f 358/3/6 359/3/6 376/3/6
f 375/1/6 358/1/6 376/1/6
f 376/3/6 359/3/6 377/3/6
f 377/3/6 359/3/6 378/3/6
f 359/1/6 360/1/6 379/1/6
f 378/3/6 359/3/6 379/3/6
f 360/3/6 361/3/6 380/3/6
f 379/1/6 360/1/6 380/1/6
f 380/3/6 361/3/6 381/3/6
f 361/2/6 362/2/6 382/2/6
f 381/3/6 361/3/6 382/3/6
f 348/2/6 363/2/6 383/2/6
f 363/3/6 364/3/6 383/3/6
f 364/3/6 365/3/6 383/3/6
f 365/1/6 366/1/6 384/1/6
f 383/3/6 365/3/6 384/3/6
f 384/1/6 366/1/6 385/1/6
f 366/3/6 351/3/6 386/3/6
f 385/1/6 366/1/6 386/1/6
f 367/1/6 368/1/6 387/1/6
f 386/3/6 351/3/6 387/3/6
f 351/1/6 367/1/6 387/1/6
f 368/3/6 353/3/6 388/3/6
f 387/1/6 368/1/6 388/1/6
f 369/1/6 370/1/6 389/1/6
f 388/3/6 353/3/6 389/3/6
f 353/1/6 369/1/6 389/1/6
f 371/3/6 372/3/6 390/3/6
f 389/1/6 370/1/6 390/1/6
f 370/3/6 371/3/6 390/3/6
f 373/1/6 374/1/6 391/1/6
f 390/3/6 372/3/6 391/3/6
f 372/1/6 373/1/6 391/1/6
f 374/3/6 375/3/6 392/3/6
f 391/1/6 374/1/6 392/1/6
f 376/3/6 377/3/6 392/3/6
f 375/3/6 376/3/6 392/3/6
f 392/3/6 377/3/6 393/3/6
f 393/3/6 377/3/6 394/3/6
f 377/1/6 378/1/6 395/1/6
f 394/3/6 377/3/6 395/3/6
f 380/3/6 381/3/6 396/3/6
f 395/1/6 378/1/6 396/1/6
f 378/3/6 379/3/6 396/3/6
f 379/3/6 380/3/6 396/3/6
f 384/1/6 385/1/6 397/1/6
f 348/2/6 383/2/6 397/2/6
f 383/1/6 384/1/6 397/1/6
f 392/3/6 393/3/6 398/3/6
f 397/1/6 385/1/6 398/1/6
f 386/3/6 387/3/6 398/3/6
f 391/3/6 392/3/6 398/3/6
f 385/3/6 386/3/6 398/3/6
f 387/3/6 388/3/6 398/3/6
f 390/3/6 391/3/6 398/3/6
f 389/3/6 390/3/6 398/3/6
f 388/3/6 389/3/6 398/3/6
f 398/3/6 393/3/6 399/3/6
f 399/3/6 393/3/6 400/3/6
f 400/3/6 393/3/6 401/3/6
f 401/3/6 393/3/6 402/3/6
f 402/3/6 393/3/6 403/3/6
f 403/3/6 393/3/6 404/3/6
f 393/1/6 394/1/6 405/1/6
f 404/3/6 393/3/6 405/3/6
f 394/3/6 395/3/6 406/3/6
f 405/1/6 394/1/6 406/1/6
f 395/3/6 396/3/6 406/3/6
f 406/3/6 396/3/6 407/3/6
f 407/3/6 396/3/6 408/3/6
f 396/3/6 381/3/6 409/3/6
f 408/3/6 396/3/6 409/3/6
f 381/1/6 382/1/6 409/1/6
f 382/2/6 362/2/6 410/2/6
f 409/1/6 382/1/6 410/1/6
f 399/1/6 400/1/6 411/1/6
f 400/3/6 401/3/6 411/3/6
f 401/1/6 402/1/6 412/1/6
f 411/3/6 401/3/6 412/3/6
f 402/3/6 403/3/6 413/3/6
f 412/1/6 402/1/6 413/1/6
f 413/3/6 403/3/6 414/3/6
f 414/3/6 403/3/6 415/3/6
f 403/1/6 404/1/6 416/1/6
f 415/3/6 403/3/6 416/3/6
f 416/1/6 404/1/6 417/1/6
f 404/3/6 405/3/6 418/3/6
f 406/3/6 407/3/6 418/3/6
f 405/3/6 406/3/6 418/3/6
f 407/1/6 408/1/6 419/1/6
f 418/3/6 407/3/6 419/3/6
f 419/1/6 408/1/6 420/1/6
f 408/3/6 409/3/6 421/3/6
f 420/1/6 408/1/6 421/1/6
f 409/3/6 410/3/6 421/3/6
f 421/3/6 410/3/6 422/3/6
f 422/3/6 410/3/6 423/3/6
f 410/2/6 362/2/6 424/2/6
f 423/3/6 410/3/6 424/3/6
f 397/3/6 398/3/6 425/3/6
f 398/3/6 399/3/6 425/3/6
f 425/3/6 399/3/6 426/3/6
f 426/3/6 399/3/6 427/3/6
f 411/1/6 412/1/6 428/1/6
f 427/3/6 399/3/6 428/3/6
f 399/1/6 411/1/6 428/1/6
f 428/1/6 412/1/6 429/1/6
f 412/3/6 413/3/6 430/3/6
f 429/1/6 412/1/6 430/1/6
f 413/3/6 414/3/6 430/3/6
f 416/3/6 417/3/6 431/3/6
f 414/1/6 415/1/6 431/1/6
f 415/3/6 416/3/6 431/3/6
f 431/3/6 417/3/6 432/3/6
f 417/1/6 404/1/6 433/1/6
f 432/3/6 417/3/6 433/3/6
f 404/3/6 418/3/6 434/3/6
f 433/1/6 404/1/6 434/1/6
f 418/1/6 419/1/6 435/1/6
f 434/3/6 418/3/6 435/3/6
f 435/1/6 419/1/6 436/1/6
f 436/1/6 419/1/6 437/1/6
f 419/3/6 420/3/6 438/3/6
f 437/1/6 419/1/6 438/1/6
f 422/3/6 423/3/6 439/3/6
f 420/1/6 421/1/6 439/1/6
f 421/1/6 422/1/6 439/1/6
f 439/3/6 423/3/6 440/3/6
f 423/1/6 424/1/6 441/1/6
f 440/3/6 423/3/6 441/3/6
f 424/2/6 362/2/6 442/2/6
f 441/1/6 424/1/6 442/1/6
f 348/2/6 397/2/6 443/2/6
f 397/3/6 425/3/6 444/3/6
f 443/2/6 397/2/6 444/2/6
f 425/1/6 426/1/6 445/1/6
f 444/3/6 425/3/6 445/3/6
f 426/3/6 427/3/6 446/3/6
f 445/1/6 426/1/6 446/1/6
f 428/1/6 429/1/6 447/1/6
f 446/3/6 427/3/6 447/3/6
f 427/1/6 428/1/6 447/1/6
f 429/3/6 430/3/6 448/3/6
f 447/1/6 429/1/6 448/1/6
f 431/1/6 432/1/6 449/1/6
f 448/3/6 430/3/6 449/3/6
f 430/3/6 414/3/6 449/3/6
f 414/1/6 431/1/6 449/1/6
f 432/3/6 433/3/6 450/3/6
f 449/1/6 432/1/6 450/1/6
f 433/3/6 434/3/6 450/3/6
f 434/3/6 435/3/6 450/3/6
f 435/3/6 436/3/6 450/3/6
f 436/1/6 437/1/6 451/1/6
f 450/3/6 436/3/6 451/3/6
f 437/3/6 438/3/6 452/3/6
f 451/1/6 437/1/6 452/1/6
f 420/1/6 439/1/6 453/1/6
f 452/3/6 438/3/6 453/3/6
f 439/1/6 440/1/6 453/1/6
f 438/3/6 420/3/6 453/3/6
f 440/3/6 441/3/6 454/3/6
f 453/1/6 440/1/6 454/1/6
f 441/3/6 442/3/6 454/3/6
f 442/2/6 362/2/6 455/2/6
f 454/3/6 442/3/6 455/3/6
f 455/2/6 362/2/6 456/2/6
