# MagicaVoxel @ Ephtracy

# group
o 

# material
mtllib roady_cross_assets-16.mtl
usemtl palette

# normals
vn -1 0 0
vn 1 0 0
vn 0 0 1
vn 0 0 -1
vn 0 -1 0
vn 0 1 0

# texcoords
vt 0.0214844 0.5
vt 0.0253906 0.5
vt 0.0292969 0.5

# verts
v -0.8 -0.8 0.3
v -0.8 -0.8 0.2
v -0.8 -0.8 -0.2
v -0.8 -0.8 -0.3
v -0.8 -0.7 0.2
v -0.8 -0.7 -0.2
v -0.8 -0.6 0.3
v -0.8 -0.6 -0.3
v 0.8 -0.8 0.3
v 0.8 -0.8 0.2
v 0.8 -0.8 -0.2
v 0.8 -0.8 -0.3
v 0.8 -0.7 0.2
v 0.8 -0.7 -0.2
v 0.8 -0.6 0.3
v 0.8 -0.6 -0.3
v -0.8 -0.8 0.3
v -0.8 -0.6 0.3
v -0.7 -0.8 0.3
v -0.7 -0.7 0.3
v -0.7 -0.6 0.3
v -0.5 -0.7 0.3
v -0.5 -0.6 0.3
v -0.3 -0.8 0.3
v -0.3 -0.7 0.3
v -0.1 -0.8 0.3
v -0.1 -0.7 0.3
v 0.1 -0.7 0.3
v 0.1 -0.6 0.3
v 0.4 -0.7 0.3
v 0.4 -0.6 0.3
v 0.5 -0.8 0.3
v 0.5 -0.7 0.3
v 0.6 -0.8 0.3
v 0.6 -0.7 0.3
v 0.7 -0.8 0.3
v 0.7 -0.6 0.3
v 0.8 -0.8 0.3
v 0.8 -0.6 0.3
v -0.8 -0.8 -0.2
v -0.8 -0.7 -0.2
v -0.7 -0.8 -0.2
v -0.7 -0.7 -0.2
v -0.5 -0.7 -0.2
v -0.4 -0.8 -0.2
v -0.4 -0.7 -0.2
v -0.2 -0.8 -0.2
v -0.2 -0.7 -0.2
v -0.1 -0.7 -0.2
v 0.2 -0.8 -0.2
v 0.2 -0.7 -0.2
v 0.3 -0.7 -0.2
v 0.6 -0.8 -0.2
v 0.6 -0.7 -0.2
v 0.7 -0.8 -0.2
v 0.7 -0.7 -0.2
v 0.8 -0.8 -0.2
v 0.8 -0.7 -0.2
v -0.8 -0.8 0.2
v -0.8 -0.7 0.2
v -0.7 -0.8 0.2
v -0.7 -0.7 0.2
v -0.3 -0.8 0.2
v -0.3 -0.7 0.2
v -0.1 -0.8 0.2
v -0.1 -0.7 0.2
v 0.5 -0.8 0.2
v 0.5 -0.7 0.2
v 0.6 -0.8 0.2
v 0.6 -0.7 0.2
v 0.7 -0.8 0.2
v 0.7 -0.7 0.2
v 0.8 -0.8 0.2
v 0.8 -0.7 0.2
v -0.8 -0.8 -0.3
v -0.8 -0.6 -0.3
v -0.7 -0.8 -0.3
v -0.7 -0.6 -0.3
v -0.5 -0.7 -0.3
v -0.5 -0.6 -0.3
v -0.4 -0.8 -0.3
v -0.4 -0.7 -0.3
v -0.2 -0.8 -0.3
v -0.2 -0.7 -0.3
v 0.1 -0.7 -0.3
v 0.1 -0.6 -0.3
v 0.2 -0.8 -0.3
v 0.2 -0.7 -0.3
v 0.6 -0.8 -0.3
v 0.6 -0.7 -0.3
v 0.7 -0.8 -0.3
v 0.7 -0.6 -0.3
v 0.8 -0.8 -0.3
v 0.8 -0.6 -0.3
v -0.8 -0.8 0.3
v -0.7 -0.8 0.3
v -0.3 -0.8 0.3
v -0.1 -0.8 0.3
v 0.5 -0.8 0.3
v 0.6 -0.8 0.3
v 0.7 -0.8 0.3
v 0.8 -0.8 0.3
v -0.8 -0.8 0.2
v -0.7 -0.8 0.2
v -0.3 -0.8 0.2
v -0.1 -0.8 0.2
v 0.5 -0.8 0.2
v 0.6 -0.8 0.2
v 0.7 -0.8 0.2
v 0.8 -0.8 0.2
v -0.8 -0.8 -0.2
v -0.7 -0.8 -0.2
v -0.4 -0.8 -0.2
v -0.2 -0.8 -0.2
v 0.2 -0.8 -0.2
v 0.6 -0.8 -0.2
v 0.7 -0.8 -0.2
v 0.8 -0.8 -0.2
v -0.8 -0.8 -0.3
v -0.7 -0.8 -0.3
v -0.4 -0.8 -0.3
v -0.2 -0.8 -0.3
v 0.2 -0.8 -0.3
v 0.6 -0.8 -0.3
v 0.7 -0.8 -0.3
v 0.8 -0.8 -0.3
v -0.8 -0.7 0.2
v -0.7 -0.7 0.2
v -0.3 -0.7 0.2
v -0.1 -0.7 0.2
v 0.5 -0.7 0.2
v 0.6 -0.7 0.2
v 0.7 -0.7 0.2
v 0.8 -0.7 0.2
v -0.3 -0.7 0.1
v -0.1 -0.7 0.1
v -0.6 -0.7 0
v -0.3 -0.7 0
v 0.5 -0.7 0
v 0.7 -0.7 0
v -0.6 -0.7 -0.1
v -0.5 -0.7 -0.1
v -0.3 -0.7 -0.1
v -0.1 -0.7 -0.1
v 0.3 -0.7 -0.1
v 0.7 -0.7 -0.1
v -0.8 -0.7 -0.2
v -0.7 -0.7 -0.2
v -0.5 -0.7 -0.2
v -0.4 -0.7 -0.2
v -0.2 -0.7 -0.2
v -0.1 -0.7 -0.2
v 0.2 -0.7 -0.2
v 0.3 -0.7 -0.2
v 0.6 -0.7 -0.2
v 0.7 -0.7 -0.2
v 0.8 -0.7 -0.2
v -0.8 -0.6 0.3
v -0.7 -0.6 0.3
v -0.5 -0.6 0.3
v 0.1 -0.6 0.3
v 0.4 -0.6 0.3
v 0.7 -0.6 0.3
v 0.8 -0.6 0.3
v -0.7 -0.6 0.2
v -0.5 -0.6 0.2
v -0.3 -0.6 0.2
v -0.1 -0.6 0.2
v 0.1 -0.6 0.2
v 0.4 -0.6 0.2
v 0.5 -0.6 0.2
v 0.7 -0.6 0.2
v -0.3 -0.6 0.1
v -0.1 -0.6 0.1
v -0.6 -0.6 0
v -0.3 -0.6 0
v 0.5 -0.6 0
v 0.7 -0.6 0
v -0.6 -0.6 -0.1
v -0.5 -0.6 -0.1
v -0.3 -0.6 -0.1
v -0.1 -0.6 -0.1
v 0.3 -0.6 -0.1
v 0.7 -0.6 -0.1
v -0.1 -0.6 -0.2
v 0.1 -0.6 -0.2
v 0.3 -0.6 -0.2
v 0.7 -0.6 -0.2
v -0.8 -0.6 -0.3
v -0.7 -0.6 -0.3
v -0.5 -0.6 -0.3
v 0.1 -0.6 -0.3
v 0.7 -0.6 -0.3
v 0.8 -0.6 -0.3

# faces
f 5/2/1 2/2/1 1/2/1
f 6/2/1 4/2/1 3/2/1
f 7/2/1 5/2/1 1/2/1
f 7/2/1 6/2/1 5/2/1
f 8/2/1 4/2/1 6/2/1
f 8/2/1 6/2/1 7/2/1
f 9/2/2 10/2/2 13/2/2
f 11/2/2 12/2/2 14/2/2
f 9/2/2 13/2/2 15/2/2
f 13/2/2 14/2/2 15/2/2
f 14/2/2 12/2/2 16/2/2
f 15/2/2 14/2/2 16/2/2
f 19/2/3 18/2/3 17/2/3
f 20/2/3 18/2/3 19/2/3
f 21/2/3 18/2/3 20/2/3
f 22/3/3 20/3/3 19/3/3
f 22/1/3 21/1/3 20/1/3
f 23/1/3 21/1/3 22/1/3
f 24/3/3 22/3/3 19/3/3
f 24/3/3 23/3/3 22/3/3
f 25/3/3 23/3/3 24/3/3
f 26/1/3 25/1/3 24/1/3
f 27/3/3 23/3/3 25/3/3
f 27/1/3 25/1/3 26/1/3
f 28/3/3 27/3/3 26/3/3
f 28/3/3 23/3/3 27/3/3
f 29/3/3 23/3/3 28/3/3
f 30/3/3 28/3/3 26/3/3
f 30/1/3 29/1/3 28/1/3
f 31/1/3 29/1/3 30/1/3
f 32/3/3 30/3/3 26/3/3
f 32/3/3 31/3/3 30/3/3
f 33/3/3 31/3/3 32/3/3
f 34/1/3 33/1/3 32/1/3
f 35/3/3 31/3/3 33/3/3
f 35/1/3 33/1/3 34/1/3
f 36/3/3 35/3/3 34/3/3
f 37/3/3 31/3/3 35/3/3
f 37/3/3 35/3/3 36/3/3
f 38/2/3 37/2/3 36/2/3
f 39/2/3 37/2/3 38/2/3
f 42/2/3 41/2/3 40/2/3
f 43/2/3 41/2/3 42/2/3
f 44/3/3 43/3/3 42/3/3
f 45/3/3 44/3/3 42/3/3
f 46/3/3 44/3/3 45/3/3
f 47/1/3 46/1/3 45/1/3
f 48/1/3 46/1/3 47/1/3
f 49/3/3 48/3/3 47/3/3
f 50/3/3 49/3/3 47/3/3
f 51/3/3 49/3/3 50/3/3
f 52/1/3 51/1/3 50/1/3
f 53/1/3 52/1/3 50/1/3
f 54/1/3 52/1/3 53/1/3
f 55/3/3 54/3/3 53/3/3
f 56/3/3 54/3/3 55/3/3
f 57/2/3 56/2/3 55/2/3
f 58/2/3 56/2/3 57/2/3
f 59/2/4 60/2/4 61/2/4
f 61/2/4 60/2/4 62/2/4
f 61/3/4 62/3/4 63/3/4
f 63/3/4 62/3/4 64/3/4
f 63/1/4 64/1/4 65/1/4
f 65/1/4 64/1/4 66/1/4
f 65/3/4 66/3/4 67/3/4
f 67/3/4 66/3/4 68/3/4
f 67/1/4 68/1/4 69/1/4
f 69/1/4 68/1/4 70/1/4
f 69/3/4 70/3/4 71/3/4
f 71/3/4 70/3/4 72/3/4
f 71/2/4 72/2/4 73/2/4
f 73/2/4 72/2/4 74/2/4
f 75/2/4 76/2/4 77/2/4
f 77/2/4 76/2/4 78/2/4
f 77/3/4 78/3/4 79/3/4
f 79/3/4 78/3/4 80/3/4
f 77/3/4 79/3/4 81/3/4
f 79/1/4 80/1/4 82/1/4
f 81/3/4 79/3/4 82/3/4
f 81/1/4 82/1/4 83/1/4
f 82/1/4 80/1/4 84/1/4
f 83/1/4 82/1/4 84/1/4
f 83/3/4 84/3/4 85/3/4
f 84/1/4 80/1/4 85/1/4
f 85/1/4 80/1/4 86/1/4
f 83/3/4 85/3/4 87/3/4
f 85/3/4 86/3/4 87/3/4
f 87/3/4 86/3/4 88/3/4
f 87/1/4 88/1/4 89/1/4
f 88/3/4 86/3/4 90/3/4
f 89/1/4 88/1/4 90/1/4
f 89/3/4 90/3/4 91/3/4
f 90/3/4 86/3/4 92/3/4
f 91/3/4 90/3/4 92/3/4
f 91/2/4 92/2/4 93/2/4
f 93/2/4 92/2/4 94/2/4
f 103/2/5 96/2/5 95/2/5
f 104/3/5 97/3/5 96/3/5
f 104/2/5 96/2/5 103/2/5
f 105/1/5 98/1/5 97/1/5
f 105/3/5 97/3/5 104/3/5
f 106/3/5 99/3/5 98/3/5
f 106/1/5 98/1/5 105/1/5
f 107/1/5 100/1/5 99/1/5
f 107/3/5 99/3/5 106/3/5
f 108/3/5 101/3/5 100/3/5
f 108/1/5 100/1/5 107/1/5
f 109/2/5 102/2/5 101/2/5
f 109/3/5 101/3/5 108/3/5
f 110/2/5 102/2/5 109/2/5
f 119/2/5 112/2/5 111/2/5
f 120/3/5 113/3/5 112/3/5
f 120/2/5 112/2/5 119/2/5
f 121/1/5 114/1/5 113/1/5
f 121/3/5 113/3/5 120/3/5
f 122/3/5 115/3/5 114/3/5
f 122/1/5 114/1/5 121/1/5
f 123/1/5 116/1/5 115/1/5
f 123/3/5 115/3/5 122/3/5
f 124/3/5 117/3/5 116/3/5
f 124/1/5 116/1/5 123/1/5
f 125/2/5 118/2/5 117/2/5
f 125/3/5 117/3/5 124/3/5
f 126/2/5 118/2/5 125/2/5
f 135/3/5 129/3/5 128/3/5
f 135/1/5 130/1/5 129/1/5
f 136/3/5 131/3/5 130/3/5
f 136/1/5 130/1/5 135/1/5
f 137/3/5 135/3/5 128/3/5
f 137/3/5 136/3/5 135/3/5
f 138/3/5 136/3/5 137/3/5
f 139/1/5 133/1/5 132/1/5
f 139/3/5 136/3/5 138/3/5
f 139/3/5 131/3/5 136/3/5
f 139/1/5 132/1/5 131/1/5
f 140/2/5 134/2/5 133/2/5
f 140/1/5 133/1/5 139/1/5
f 141/1/5 138/1/5 137/1/5
f 141/3/5 137/3/5 128/3/5
f 142/1/5 138/1/5 141/1/5
f 143/3/5 139/3/5 138/3/5
f 143/1/5 138/1/5 142/1/5
f 143/3/5 140/3/5 139/3/5
f 144/3/5 140/3/5 143/3/5
f 145/3/5 140/3/5 144/3/5
f 146/2/5 134/2/5 140/2/5
f 146/3/5 140/3/5 145/3/5
f 147/2/5 128/2/5 127/2/5
f 148/3/5 142/3/5 141/3/5
f 148/2/5 128/2/5 147/2/5
f 148/3/5 141/3/5 128/3/5
f 149/1/5 143/1/5 142/1/5
f 149/3/5 142/3/5 148/3/5
f 149/1/5 144/1/5 143/1/5
f 150/1/5 144/1/5 149/1/5
f 151/1/5 144/1/5 150/1/5
f 152/3/5 145/3/5 144/3/5
f 152/1/5 144/1/5 151/1/5
f 153/3/5 145/3/5 152/3/5
f 154/1/5 146/1/5 145/1/5
f 154/3/5 145/3/5 153/3/5
f 155/1/5 146/1/5 154/1/5
f 156/2/5 134/2/5 146/2/5
f 156/1/5 146/1/5 155/1/5
f 157/2/5 134/2/5 156/2/5
f 158/2/6 159/2/6 165/2/6
f 159/1/6 160/1/6 165/1/6
f 160/3/6 161/3/6 166/3/6
f 165/1/6 160/1/6 166/1/6
f 166/3/6 161/3/6 167/3/6
f 167/3/6 161/3/6 168/3/6
f 161/1/6 162/1/6 169/1/6
f 168/3/6 161/3/6 169/3/6
f 162/3/6 163/3/6 170/3/6
f 169/1/6 162/1/6 170/1/6
f 170/3/6 163/3/6 171/3/6
f 163/2/6 164/2/6 172/2/6
f 171/3/6 163/3/6 172/3/6
f 167/1/6 168/1/6 173/1/6
f 165/3/6 166/3/6 173/3/6
f 166/3/6 167/3/6 173/3/6
f 170/3/6 171/3/6 174/3/6
f 173/1/6 168/1/6 174/1/6
f 168/3/6 169/3/6 174/3/6
f 169/3/6 170/3/6 174/3/6
f 165/3/6 173/3/6 175/3/6
f 173/3/6 174/3/6 175/3/6
f 175/3/6 174/3/6 176/3/6
f 174/3/6 171/3/6 177/3/6
f 176/3/6 174/3/6 177/3/6
f 171/1/6 172/1/6 177/1/6
f 172/2/6 164/2/6 178/2/6
f 177/1/6 172/1/6 178/1/6
f 175/1/6 176/1/6 179/1/6
f 165/3/6 175/3/6 179/3/6
f 179/1/6 176/1/6 180/1/6
f 177/3/6 178/3/6 181/3/6
f 180/1/6 176/1/6 181/1/6
f 176/3/6 177/3/6 181/3/6
f 181/3/6 178/3/6 182/3/6
f 182/3/6 178/3/6 183/3/6
f 178/2/6 164/2/6 184/2/6
f 183/3/6 178/3/6 184/3/6
f 182/3/6 183/3/6 185/3/6
f 180/1/6 181/1/6 185/1/6
f 181/1/6 182/1/6 185/1/6
f 185/3/6 183/3/6 186/3/6
f 183/1/6 184/1/6 187/1/6
f 186/3/6 183/3/6 187/3/6
f 184/2/6 164/2/6 188/2/6
f 187/1/6 184/1/6 188/1/6
f 158/2/6 165/2/6 189/2/6
f 179/3/6 180/3/6 190/3/6
f 189/2/6 165/2/6 190/2/6
f 165/3/6 179/3/6 190/3/6
f 185/1/6 186/1/6 191/1/6
f 190/3/6 180/3/6 191/3/6
f 180/1/6 185/1/6 191/1/6
f 186/3/6 187/3/6 192/3/6
f 191/1/6 186/1/6 192/1/6
f 187/3/6 188/3/6 192/3/6
f 188/2/6 164/2/6 193/2/6
f 192/3/6 188/3/6 193/3/6
f 193/2/6 164/2/6 194/2/6
